<svg id="visual" viewBox="0 0 1920 1080" width="1920" height="1080" xmlns="http://www.w3.org/2000/svg" xmlns:xlink="http://www.w3.org/1999/xlink" version="1.1"><path d="M0 87L64 81.7C128 76.3 256 65.7 384 73C512 80.3 640 105.7 768 116.5C896 127.3 1024 123.7 1152 109.2C1280 94.7 1408 69.3 1536 63.8C1664 58.3 1792 72.7 1856 79.8L1920 87L1920 0L1856 0C1792 0 1664 0 1536 0C1408 0 1280 0 1152 0C1024 0 896 0 768 0C640 0 512 0 384 0C256 0 128 0 64 0L0 0Z" fill="#e2f9ff"></path><path d="M0 195L64 204C128 213 256 231 384 258C512 285 640 321 768 319.3C896 317.7 1024 278.3 1152 251.3C1280 224.3 1408 209.7 1536 202.3C1664 195 1792 195 1856 195L1920 195L1920 85L1856 77.8C1792 70.7 1664 56.3 1536 61.8C1408 67.3 1280 92.7 1152 107.2C1024 121.7 896 125.3 768 114.5C640 103.7 512 78.3 384 71C256 63.7 128 74.3 64 79.7L0 85Z" fill="#effcff"></path><path d="M0 411L64 420C128 429 256 447 384 483C512 519 640 573 768 562.3C896 551.7 1024 476.3 1152 438.7C1280 401 1408 401 1536 428C1664 455 1792 509 1856 536L1920 563L1920 193L1856 193C1792 193 1664 193 1536 200.3C1408 207.7 1280 222.3 1152 249.3C1024 276.3 896 315.7 768 317.3C640 319 512 283 384 256C256 229 128 211 64 202L0 193Z" fill="#fafeff"></path><path d="M0 465L64 486.7C128 508.3 256 551.7 384 598.5C512 645.3 640 695.7 768 683C896 670.3 1024 594.7 1152 547.8C1280 501 1408 483 1536 515.5C1664 548 1792 631 1856 672.5L1920 714L1920 561L1856 534C1792 507 1664 453 1536 426C1408 399 1280 399 1152 436.7C1024 474.3 896 549.7 768 560.3C640 571 512 517 384 481C256 445 128 427 64 418L0 409Z" fill="#ffffff"></path><path d="M0 530L64 549.8C128 569.7 256 609.3 384 659.8C512 710.3 640 771.7 768 777C896 782.3 1024 731.7 1152 679.3C1280 627 1408 573 1536 596.5C1664 620 1792 721 1856 771.5L1920 822L1920 712L1856 670.5C1792 629 1664 546 1536 513.5C1408 481 1280 499 1152 545.8C1024 592.7 896 668.3 768 681C640 693.7 512 643.3 384 596.5C256 549.7 128 506.3 64 484.7L0 463Z" fill="#fafeff"></path><path d="M0 973L64 969.3C128 965.7 256 958.3 384 960.2C512 962 640 973 768 985.7C896 998.3 1024 1012.7 1152 1010.8C1280 1009 1408 991 1536 989.2C1664 987.3 1792 1001.7 1856 1008.8L1920 1016L1920 820L1856 769.5C1792 719 1664 618 1536 594.5C1408 571 1280 625 1152 677.3C1024 729.7 896 780.3 768 775C640 769.7 512 708.3 384 657.8C256 607.3 128 567.7 64 547.8L0 528Z" fill="#effcff"></path><path d="M0 1081L64 1081C128 1081 256 1081 384 1081C512 1081 640 1081 768 1081C896 1081 1024 1081 1152 1081C1280 1081 1408 1081 1536 1081C1664 1081 1792 1081 1856 1081L1920 1081L1920 1014L1856 1006.8C1792 999.7 1664 985.3 1536 987.2C1408 989 1280 1007 1152 1008.8C1024 1010.7 896 996.3 768 983.7C640 971 512 960 384 958.2C256 956.3 128 963.7 64 967.3L0 971Z" fill="#e2f9ff"></path></svg>